<?xml version="1.0" encoding="iso-8859-1"?>
<svg width="121" height="31" viewBox="0 0 121 31" fill="none" xmlns="http://www.w3.org/2000/svg">
<g clip-path="url(#clip0_574_1875)">
<path d="M4.22486 2.55749C4.76193 2.55241 5.29413 2.65869 5.78718 2.86949C6.25747 3.06972 6.67982 3.36581 7.02669 3.73844C7.38023 4.12413 7.65565 4.57342 7.83797 5.06189C8.03825 5.5983 8.13746 6.16651 8.13067 6.73832V10.7822H5.90389V6.7346C5.90548 6.49121 5.87382 6.24873 5.80977 6.01373C5.74725 5.78604 5.64293 5.57167 5.50201 5.38134C5.3625 5.19369 5.18286 5.03882 4.9759 4.92778C4.7436 4.8087 4.4845 4.75005 4.22298 4.75734C3.95451 4.75505 3.6885 4.80802 3.44182 4.91288C3.20669 5.01386 2.9928 5.1576 2.81124 5.33664C2.62851 5.51804 2.48308 5.73281 2.38301 5.96903C2.27777 6.21077 2.22395 6.47137 2.2249 6.7346V10.7785H0V0.0447083L2.22302 0.137843V3.06601C2.52207 2.90404 2.84003 2.77893 3.16982 2.69347C3.51399 2.60272 3.86869 2.55701 4.22486 2.55749Z" fill="white"/>
<path d="M11.6421 -2.26669e-06C11.8074 -0.00351864 11.9715 0.0270438 12.1241 0.0897391C12.2768 0.152434 12.4146 0.24589 12.5287 0.364156C12.6459 0.480049 12.7382 0.618147 12.8001 0.770178C12.862 0.922209 12.8923 1.08505 12.8892 1.24894C12.8913 1.41158 12.8605 1.57301 12.7986 1.72369C12.7367 1.87437 12.6449 2.01126 12.5287 2.12628C12.4125 2.2413 12.2742 2.33211 12.1219 2.39338C11.9696 2.45464 11.8065 2.48511 11.6421 2.48298C11.4765 2.486 11.312 2.45597 11.1584 2.39469C11.0048 2.3334 10.8652 2.24211 10.748 2.12627C10.6288 2.01307 10.5346 1.87669 10.4713 1.7257C10.408 1.57471 10.3769 1.41239 10.38 1.24894C10.3793 1.08472 10.4114 0.921978 10.4746 0.770116C10.5378 0.618253 10.6307 0.480279 10.748 0.364156C10.8654 0.248034 11.0048 0.156065 11.1583 0.093562C11.3117 0.0310588 11.4762 -0.000742009 11.6421 -2.26669e-06ZM12.4384 2.78008H12.7536V10.7785H10.4854V2.78008H12.4384Z" fill="white"/>
<path d="M54.2117 21.5142C53.5715 22.0227 52.8219 22.3793 52.0207 22.5564C51.2326 22.7247 50.414 22.6901 49.6433 22.4558C48.8396 22.2223 48.1309 21.747 47.5172 21.0299C49.6687 20.4028 51.802 19.7921 53.9171 19.1979C56.0322 18.6037 58.1548 17.9828 60.285 17.3352C60.0817 15.4104 59.5045 13.7914 58.5533 12.4782C57.6021 11.165 56.4586 10.1679 55.1227 9.48674C53.7989 8.80628 52.3339 8.43812 50.8424 8.41103C49.3648 8.36937 47.8984 8.67448 46.5629 9.3014C46.2135 9.46646 45.8758 9.65471 45.5521 9.86487C43.9747 1.72487 37.0911 6.06682 30.0559 11.6344C27.8084 -6.16181 3.26869 19.1486 0.798149 25.2592C-3.02295 34.7133 8.31047 30.4272 11.8097 26.9626C14.0478 24.7478 16.1108 22.3645 18.3498 20.1507C14.2595 32.2899 30.695 22.9205 33.494 20.1507C30.9322 30.294 37.7904 29.101 44.9309 25.3728C45.2121 25.6107 45.5062 25.8334 45.8119 26.0396C46.7817 26.6878 47.8693 27.1436 49.0146 27.3817C50.3059 27.6723 51.5344 27.7117 52.7002 27.5C53.8468 27.2942 54.946 26.8839 55.9444 26.2892C56.9601 25.679 57.8621 24.9002 58.6107 23.9869C59.4034 23.0264 60.0604 21.9636 60.5636 20.8278L55.774 19.5164C55.4289 20.3004 54.892 20.9869 54.2117 21.5142ZM46.6203 15.5536C46.9052 14.9915 47.3179 14.5025 47.8259 14.1249C48.3651 13.724 48.976 13.4276 49.6264 13.2513C50.2765 13.0641 50.9544 12.99 51.6301 13.0324C52.2593 13.0694 52.8706 13.2539 53.4136 13.5707C53.9457 13.8849 54.3362 14.3667 54.5853 15.0162L46.3973 17.4023C46.2558 16.7789 46.3346 16.1264 46.6203 15.5536Z" fill="white"/>
<path d="M78.6008 9.8723C77.9266 9.50692 77.2071 9.23014 76.4606 9.04899C75.683 8.85774 74.8845 8.76171 74.0832 8.76306C72.8108 8.75494 71.5504 9.00669 70.3807 9.50255C68.1009 10.4588 66.2859 12.2545 65.3192 14.5104C64.8266 15.6705 64.5729 16.9161 64.5729 18.1744C64.5729 19.4326 64.8266 20.6783 65.3192 21.8383C65.8018 22.9588 66.4934 23.9793 67.3577 24.8466C68.2221 25.7127 69.249 26.4036 70.3807 26.8806C71.5504 27.3765 72.8108 27.6282 74.0832 27.6201C75.6643 27.6379 77.2223 27.2437 78.6008 26.4773V27.351H83.6275V3.14795H78.6008V9.8723ZM78.2441 19.9225C77.7797 20.9855 76.9221 21.8325 75.847 22.29C75.2907 22.5229 74.6929 22.643 74.0889 22.643C73.4849 22.643 72.887 22.5229 72.3308 22.29C71.7918 22.0658 71.3015 21.7407 70.8871 21.3326C70.4774 20.9266 70.1491 20.4475 69.9196 19.9206C69.6841 19.3704 69.5628 18.7789 69.5628 18.1813C69.5628 17.5838 69.6841 16.9923 69.9196 16.442C70.3748 15.3635 71.2411 14.5059 72.3308 14.055C72.887 13.8221 73.4849 13.702 74.0889 13.702C74.6929 13.702 75.2907 13.8221 75.847 14.055C76.3788 14.2831 76.8625 14.6082 77.2728 15.0134C77.6856 15.4235 78.0144 15.9086 78.2413 16.442C78.4767 16.9923 78.598 17.5838 78.598 18.1813C78.598 18.7789 78.4767 19.3704 78.2413 19.9206L78.2441 19.9225Z" fill="white"/>
<path d="M90.8961 2.84529C90.521 2.84368 90.1492 2.91564 89.8023 3.057C89.4554 3.19835 89.1403 3.40631 88.8751 3.66886C88.6098 3.93141 88.3998 4.24335 88.2571 4.58668C88.1143 4.93 88.0417 5.2979 88.0435 5.66914C88.0357 6.03866 88.1057 6.40575 88.2489 6.74709C88.3921 7.08843 88.6055 7.39659 88.8755 7.65199C89.1401 7.9141 89.4554 8.12064 89.8027 8.25923C90.1499 8.39783 90.5218 8.46562 90.8961 8.45854C91.268 8.46379 91.6371 8.39526 91.9818 8.257C92.3264 8.11874 92.6396 7.91355 92.9028 7.65354C93.1659 7.39353 93.3738 7.08397 93.5141 6.74314C93.6544 6.40232 93.7243 6.03713 93.7196 5.66914C93.7266 5.29858 93.6581 4.93042 93.5181 4.58668C93.378 4.24294 93.1694 3.93069 92.9045 3.6686C92.6457 3.40113 92.3335 3.18982 91.9878 3.04809C91.642 2.90636 91.2703 2.8373 90.8961 2.84529Z" fill="white"/>
<path d="M88.995 9.13095H88.2816V9.83692V26.509V27.215H88.995H92.6965H93.41V26.509V9.83692V9.13095H92.6965H88.995Z" fill="white"/>
<path d="M110.053 21.87C109.346 22.2914 108.535 22.5124 107.71 22.5089C107.086 22.5156 106.468 22.3954 105.893 22.1559C104.779 21.6814 103.892 20.8033 103.413 19.7018C103.17 19.1328 103.049 18.5207 103.056 17.9034C103.052 17.3053 103.17 16.7126 103.403 16.1609C103.637 15.6093 103.981 15.1103 104.415 14.6939C104.844 14.2795 105.345 13.9437 105.893 13.702C106.465 13.4512 107.084 13.3242 107.71 13.3295C108.556 13.3257 109.386 13.5588 110.104 14.0019C110.838 14.4491 111.432 15.0891 111.82 15.8507L116.405 13.5046C115.576 11.9241 114.324 10.5987 112.787 9.67208C111.461 8.87645 109.964 8.40261 108.417 8.28931C106.871 8.176 105.319 8.42643 103.889 9.02013C102.725 9.50637 101.664 10.2063 100.763 11.0831C99.8681 11.9583 99.1531 12.997 98.6578 14.1416C98.1433 15.3308 97.8831 16.6126 97.8936 17.9061C97.884 19.2054 98.1441 20.4927 98.6578 21.6884C99.6575 24.0206 101.535 25.8761 103.893 26.862C105.916 27.6977 108.162 27.8454 110.279 27.2821C111.103 27.0591 111.891 26.7254 112.623 26.2902C113.358 25.8531 114.037 25.3283 114.643 24.7274C115.269 24.1066 115.807 23.4056 116.243 22.643L111.76 20.1554C111.356 20.8677 110.767 21.4598 110.053 21.87Z" fill="white"/>
<path d="M121 7.96956V10.921H116.933V14.9454H113.952V10.921H109.909V7.96956H113.952V3.97034H116.933V7.96956H121Z" fill="#ED1C24"/>
</g>
<defs>
<clipPath id="clip0_574_1875">
<rect width="121" height="31" fill="white"/>
</clipPath>
</defs>
</svg>
